<svg xmlns="http://www.w3.org/2000/svg">
  <symbol
    viewBox="0 0 24 24"
    id="download"
  >
    <g
      fill="none"
      stroke="currentColor"
      stroke-linecap="round"
      stroke-linejoin="round"
      stroke-width="2"
    >
      <path d="M12 15V3m9 12v4a2 2 0 0 1-2 2H5a2 2 0 0 1-2-2v-4" />
      <path d="m7 10l5 5l5-5" />
    </g>
  </symbol>
  <symbol
    viewBox="0 0 24 24"
    id="github"
  >
    <path
      fill="currentColor"
      d="M12 2A10 10 0 0 0 2 12c0 4.42 2.87 8.17 6.84 9.5c.5.08.66-.23.66-.5v-1.69c-2.77.6-3.36-1.34-3.36-1.34c-.46-1.16-1.11-1.47-1.11-1.47c-.91-.62.07-.6.07-.6c1 .07 1.53 1.03 1.53 1.03c.87 1.52 2.34 1.07 2.91.83c.09-.65.35-1.09.63-1.34c-2.22-.25-4.55-1.11-4.55-4.92c0-1.11.38-2 1.03-2.71c-.1-.25-.45-1.29.1-2.64c0 0 .84-.27 2.75 1.02c.79-.22 1.65-.33 2.5-.33s1.71.11 2.5.33c1.91-1.29 2.75-1.02 2.75-1.02c.55 1.35.2 2.39.1 2.64c.65.71 1.03 1.6 1.03 2.71c0 3.82-2.34 4.66-4.57 4.91c.36.31.69.92.69 1.85V21c0 .27.16.59.67.5C19.14 20.16 22 16.42 22 12A10 10 0 0 0 12 2"
    />
  </symbol>
  <symbol
    viewBox="0 0 24 24"
    id="copy"
  >
    <path
      fill="currentColor"
      d="M19 21H8V7h11m0-2H8a2 2 0 0 0-2 2v14a2 2 0 0 0 2 2h11a2 2 0 0 0 2-2V7a2 2 0 0 0-2-2m-3-4H4a2 2 0 0 0-2 2v14h2V3h12z"
    />
  </symbol>
  <symbol
    viewBox="0 0 24 24"
    id="convert"
    fill="none"
    stroke="currentColor"
  >
    <path
      stroke-linecap="round"
      stroke-linejoin="round"
      stroke-width="2"
      d="M8 7h12m0 0l-4-4m4 4l-4 4m0 6H4m0 0l4 4m-4-4l4-4"
    />
  </symbol>

  <symbol
    viewBox="0 0 24 24"
    id="preview"
    fill="none"
    stroke="currentColor"
  >
    <path
      stroke-linecap="round"
      stroke-linejoin="round"
      stroke-width="2"
      d="M4 16l4.586-4.586a2 2 0 012.828 0L16 16m-2-2l1.586-1.586a2 2 0 012.828 0L20 14m-6-6h.01M6 20h12a2 2 0 002-2V6a2 2 0 00-2-2H6a2 2 0 00-2 2v12a2 2 0 002 2z"
    />
  </symbol>
  <symbol
    viewBox="0 0 24 24"
    id="check"
  >
    <path
      fill="none"
      stroke="currentColor"
      stroke-linecap="round"
      stroke-linejoin="round"
      stroke-width="2"
      d="M20 6L9 17l-5-5"
    />
  </symbol>
</svg>
